<svg width="120" height="51" viewBox="0 0 120 51" fill="none" xmlns="http://www.w3.org/2000/svg">
<path d="M70 8C70 9.65685 69.3284 50.5 68.5 50.5C67.6716 50.5 67 9.65685 67 8C67 6.34315 67.6716 5 68.5 5C69.3284 5 70 6.34315 70 8Z" fill="url(#paint0_radial_170_1340)"/>
<ellipse cx="68.5" cy="9" rx="0.5" ry="3" fill="white"/>
<path d="M17.8125 25.05C17.8125 26.3917 17.6 27.6125 17.175 28.7125C16.75 29.8125 16.15 30.7542 15.375 31.5375C14.6 32.3208 13.6667 32.9292 12.575 33.3625C11.4917 33.7875 10.2917 34 8.975 34H2.2875V16.0875H8.975C10.2917 16.0875 11.4917 16.3042 12.575 16.7375C13.6667 17.1625 14.6 17.7708 15.375 18.5625C16.15 19.3458 16.75 20.2875 17.175 21.3875C17.6 22.4875 17.8125 23.7083 17.8125 25.05ZM15.325 25.05C15.325 23.95 15.175 22.9667 14.875 22.1C14.575 21.2333 14.15 20.5 13.6 19.9C13.05 19.3 12.3833 18.8417 11.6 18.525C10.8167 18.2083 9.94167 18.05 8.975 18.05H4.7125V32.0375H8.975C9.94167 32.0375 10.8167 31.8792 11.6 31.5625C12.3833 31.2458 13.05 30.7917 13.6 30.2C14.15 29.6 14.575 28.8667 14.875 28C15.175 27.1333 15.325 26.15 15.325 25.05ZM30.3303 27.35L27.5178 20.0625C27.4344 19.8458 27.3469 19.5958 27.2553 19.3125C27.1636 19.0208 27.0761 18.7125 26.9928 18.3875C26.8178 19.0625 26.6386 19.625 26.4553 20.075L23.6428 27.35H30.3303ZM35.3803 34H33.5053C33.2886 34 33.1136 33.9458 32.9803 33.8375C32.8469 33.7292 32.7469 33.5917 32.6803 33.425L31.0053 29.1H22.9678L21.2928 33.425C21.2428 33.575 21.1469 33.7083 21.0053 33.825C20.8636 33.9417 20.6886 34 20.4803 34H18.6053L25.7678 16.0875H28.2178L35.3803 34ZM48.0914 18.125H42.2914V34H39.8789V18.125H34.0664V16.0875H48.0914V18.125ZM58.5041 27.35L55.6916 20.0625C55.6083 19.8458 55.5208 19.5958 55.4291 19.3125C55.3374 19.0208 55.2499 18.7125 55.1666 18.3875C54.9916 19.0625 54.8124 19.625 54.6291 20.075L51.8166 27.35H58.5041ZM63.5541 34H61.6791C61.4624 34 61.2874 33.9458 61.1541 33.8375C61.0208 33.7292 60.9208 33.5917 60.8541 33.425L59.1791 29.1H51.1416L49.4666 33.425C49.4166 33.575 49.3208 33.7083 49.1791 33.825C49.0374 33.9417 48.8624 34 48.6541 34H46.7791L53.9416 16.0875H56.3916L63.5541 34Z" fill="#17223D"/>
<path d="M84.45 31.9625V34H74.2875V16.0875H76.7V31.9625H84.45ZM102.849 25.05C102.849 26.3917 102.637 27.625 102.212 28.75C101.787 29.8667 101.187 30.8292 100.412 31.6375C99.6367 32.4458 98.7034 33.075 97.6117 33.525C96.5284 33.9667 95.3284 34.1875 94.0117 34.1875C92.6951 34.1875 91.4951 33.9667 90.4117 33.525C89.3284 33.075 88.3992 32.4458 87.6242 31.6375C86.8492 30.8292 86.2492 29.8667 85.8242 28.75C85.3992 27.625 85.1867 26.3917 85.1867 25.05C85.1867 23.7083 85.3992 22.4792 85.8242 21.3625C86.2492 20.2375 86.8492 19.2708 87.6242 18.4625C88.3992 17.6458 89.3284 17.0125 90.4117 16.5625C91.4951 16.1125 92.6951 15.8875 94.0117 15.8875C95.3284 15.8875 96.5284 16.1125 97.6117 16.5625C98.7034 17.0125 99.6367 17.6458 100.412 18.4625C101.187 19.2708 101.787 20.2375 102.212 21.3625C102.637 22.4792 102.849 23.7083 102.849 25.05ZM100.362 25.05C100.362 23.95 100.212 22.9625 99.9117 22.0875C99.6117 21.2125 99.1867 20.475 98.6367 19.875C98.0867 19.2667 97.4201 18.8 96.6367 18.475C95.8534 18.15 94.9784 17.9875 94.0117 17.9875C93.0534 17.9875 92.1826 18.15 91.3992 18.475C90.6159 18.8 89.9451 19.2667 89.3867 19.875C88.8367 20.475 88.4117 21.2125 88.1117 22.0875C87.8117 22.9625 87.6617 23.95 87.6617 25.05C87.6617 26.15 87.8117 27.1375 88.1117 28.0125C88.4117 28.8792 88.8367 29.6167 89.3867 30.225C89.9451 30.825 90.6159 31.2875 91.3992 31.6125C92.1826 31.9292 93.0534 32.0875 94.0117 32.0875C94.9784 32.0875 95.8534 31.9292 96.6367 31.6125C97.4201 31.2875 98.0867 30.825 98.6367 30.225C99.1867 29.6167 99.6117 28.8792 99.9117 28.0125C100.212 27.1375 100.362 26.15 100.362 25.05ZM111.281 24.7625C111.981 24.7625 112.598 24.6792 113.131 24.5125C113.673 24.3375 114.123 24.0958 114.481 23.7875C114.848 23.4708 115.123 23.0958 115.306 22.6625C115.49 22.2292 115.581 21.75 115.581 21.225C115.581 20.1583 115.231 19.3542 114.531 18.8125C113.831 18.2708 112.781 18 111.381 18H108.731V24.7625H111.281ZM119.556 34H117.406C116.965 34 116.64 33.8292 116.431 33.4875L111.781 27.0875C111.64 26.8875 111.485 26.7458 111.319 26.6625C111.16 26.5708 110.91 26.525 110.569 26.525H108.731V34H106.319V16.0875H111.381C112.515 16.0875 113.494 16.2042 114.319 16.4375C115.144 16.6625 115.823 16.9917 116.356 17.425C116.898 17.8583 117.298 18.3833 117.556 19C117.815 19.6083 117.944 20.2917 117.944 21.05C117.944 21.6833 117.844 22.275 117.644 22.825C117.444 23.375 117.152 23.8708 116.769 24.3125C116.394 24.7458 115.931 25.1167 115.381 25.425C114.84 25.7333 114.223 25.9667 113.531 26.125C113.84 26.3 114.106 26.5542 114.331 26.8875L119.556 34Z" fill="#17223D"/>
<path d="M43 11.5C51.3053 11.6136 62.4878 20.8448 65.4571 9.21028C65.5746 8.74988 65.6078 8.2596 65.5787 7.78532V7.78532C65.527 6.94086 65.2728 6.12126 64.8375 5.39578L64.215 4.35833C64.0719 4.1198 63.9106 3.89267 63.7325 3.67898L63.1724 3.00686C62.1542 1.78507 58.8587 -0.134712 59.1182 1.43438V1.43438C59.2764 2.39089 59.9173 3.34481 60.649 3.98089C60.8879 4.18856 61.1185 4.39156 61.3412 4.58994C64.9967 7.84684 71.925 10.6141 76.6645 9.3864C79.3354 8.69454 81.7236 7.46696 84.5 5.5" stroke="#17223D" stroke-width="0.3"/>
<defs>
<radialGradient id="paint0_radial_170_1340" cx="0" cy="0" r="1" gradientUnits="userSpaceOnUse" gradientTransform="translate(68.5 19) rotate(90) scale(31.5 2.07692)">
<stop stop-color="#C4C4C4"/>
<stop offset="0.989204" stop-color="#4B4B4B"/>
<stop offset="1" stop-color="#C4C4C4"/>
</radialGradient>
</defs>
</svg>
